<svg width="152" height="44" viewBox="0 0 152 44" fill="none" xmlns="http://www.w3.org/2000/svg">
<path d="M52.936 26.896H49.72C49.768 28.216 50.344 29.248 51.424 30.016C52.48 30.784 53.872 31.144 55.6 31.144C56.704 31.144 57.664 31 58.504 30.664C59.344 30.328 59.992 29.872 60.472 29.248C60.952 28.648 61.192 27.952 61.192 27.136C61.192 25.888 60.736 25 59.848 24.472C58.96 23.944 57.688 23.584 56.032 23.392C55.24 23.32 54.688 23.248 54.352 23.176C54.016 23.128 53.728 23.008 53.536 22.864C53.32 22.72 53.224 22.504 53.224 22.216C53.224 21.832 53.416 21.496 53.8 21.256C54.184 21.016 54.712 20.896 55.36 20.896C56.032 20.896 56.608 21.064 57.04 21.352C57.472 21.64 57.736 22.024 57.784 22.48H61C60.904 21.232 60.352 20.272 59.32 19.552C58.288 18.856 56.944 18.496 55.264 18.472C54.208 18.472 53.296 18.64 52.504 18.976C51.688 19.312 51.064 19.792 50.632 20.416C50.2 21.04 49.984 21.736 49.984 22.528C49.984 23.344 50.2 23.968 50.632 24.448C51.064 24.928 51.64 25.288 52.36 25.504C53.08 25.744 53.968 25.912 55.072 26.056C55.864 26.152 56.44 26.248 56.8 26.32C57.136 26.392 57.424 26.512 57.616 26.656C57.808 26.824 57.904 27.064 57.904 27.376C57.904 27.808 57.688 28.144 57.28 28.384C56.848 28.624 56.296 28.72 55.576 28.72C54.808 28.72 54.208 28.552 53.728 28.216C53.248 27.88 52.984 27.448 52.936 26.896ZM63.1369 14.2V31H66.5209V14.2H63.1369ZM71.4711 30.376C72.4551 30.904 73.6071 31.144 74.9031 31.144C76.1991 31.144 77.3271 30.904 78.3111 30.376C79.2951 29.848 80.0631 29.128 80.5911 28.168C81.1191 27.208 81.4071 26.104 81.4071 24.832C81.4071 23.584 81.1191 22.48 80.5911 21.52C80.0631 20.56 79.2951 19.84 78.3111 19.312C77.3271 18.784 76.1991 18.52 74.9031 18.52C73.6071 18.52 72.4551 18.784 71.4711 19.312C70.4871 19.84 69.7191 20.56 69.1911 21.52C68.6631 22.48 68.3991 23.584 68.3991 24.832C68.3991 26.08 68.6631 27.184 69.1911 28.144C69.7191 29.104 70.4871 29.848 71.4711 30.376ZM77.1351 27.4C76.5831 28.072 75.8391 28.384 74.9031 28.384C73.9671 28.384 73.2231 28.072 72.6711 27.4C72.1191 26.752 71.8551 25.888 71.8551 24.832C71.8551 23.776 72.1191 22.936 72.6711 22.264C73.2231 21.616 73.9671 21.28 74.9031 21.28C75.8391 21.28 76.5831 21.616 77.1351 22.264C77.6871 22.936 77.9751 23.776 77.9751 24.832C77.9751 25.888 77.6871 26.752 77.1351 27.4ZM81.7422 18.664L85.7742 31H89.3742L91.5822 23.56L93.7422 31H97.3422L101.398 18.664H97.9422L95.4222 27.376L93.1662 18.664H90.1182L87.7902 27.352L85.3182 18.664H81.7422ZM102.582 15.208V27.472C102.582 29.824 103.758 31 106.11 31H108.918V28.144H107.166C106.734 28.144 106.422 28.048 106.23 27.856C106.038 27.664 105.966 27.352 105.966 26.92V21.52H108.774V18.664H105.966V15.208H102.582ZM122.414 28.144H122.03C121.742 28.144 121.55 28.096 121.43 27.976C121.286 27.88 121.238 27.664 121.238 27.352V23.008C121.238 21.568 120.758 20.44 119.798 19.672C118.838 18.904 117.494 18.52 115.766 18.52C114.086 18.52 112.766 18.88 111.758 19.576C110.75 20.272 110.174 21.256 110.078 22.504H113.342C113.414 22.048 113.654 21.688 114.062 21.4C114.446 21.136 114.974 20.992 115.598 20.992C116.294 20.992 116.846 21.16 117.278 21.496C117.686 21.832 117.902 22.264 117.902 22.816V23.416H115.454C113.606 23.416 112.19 23.776 111.23 24.496C110.27 25.216 109.79 26.224 109.79 27.52C109.79 28.672 110.198 29.584 111.038 30.208C111.878 30.832 112.982 31.144 114.374 31.144C115.286 31.144 116.078 30.976 116.75 30.592C117.398 30.232 117.95 29.704 118.406 28.984C118.358 30.328 119.126 31 120.686 31H122.414V28.144ZM117.902 25.672V25.912C117.878 26.776 117.614 27.448 117.11 27.952C116.582 28.456 115.886 28.696 115.022 28.696C114.446 28.696 114.014 28.576 113.678 28.312C113.342 28.072 113.198 27.712 113.198 27.28C113.198 26.776 113.39 26.392 113.774 26.104C114.158 25.816 114.71 25.672 115.43 25.672H117.902ZM133.779 19.312C132.915 18.784 131.955 18.52 130.851 18.52C129.987 18.52 129.243 18.688 128.595 19.024C127.947 19.36 127.419 19.816 127.011 20.368L126.675 18.664H123.723V35.8H127.107V29.44C127.995 30.592 129.243 31.144 130.827 31.144C131.931 31.144 132.915 30.904 133.779 30.376C134.643 29.848 135.315 29.128 135.795 28.168C136.275 27.232 136.539 26.128 136.539 24.856C136.539 23.608 136.275 22.48 135.795 21.52C135.315 20.56 134.643 19.84 133.779 19.312ZM132.267 27.4C131.691 28.072 130.971 28.384 130.059 28.384C129.147 28.384 128.403 28.072 127.875 27.4C127.323 26.752 127.059 25.888 127.059 24.808C127.059 23.752 127.323 22.912 127.875 22.264C128.403 21.616 129.147 21.28 130.059 21.28C130.971 21.28 131.691 21.616 132.267 22.264C132.819 22.912 133.107 23.752 133.107 24.808C133.107 25.864 132.819 26.728 132.267 27.4ZM138.706 21.52C138.178 22.48 137.938 23.584 137.938 24.856C137.938 26.128 138.202 27.232 138.73 28.192C139.258 29.152 140.026 29.872 141.034 30.376C142.042 30.904 143.218 31.144 144.61 31.144C145.666 31.144 146.602 30.976 147.418 30.592C148.234 30.208 148.882 29.704 149.386 29.032C149.866 28.384 150.178 27.64 150.322 26.824H146.986C146.842 27.4 146.53 27.856 146.074 28.144C145.618 28.432 145.042 28.576 144.37 28.576C143.506 28.576 142.81 28.336 142.33 27.808C141.826 27.304 141.538 26.608 141.466 25.696V25.6H150.418C150.466 25.264 150.514 24.88 150.514 24.448C150.49 23.248 150.202 22.216 149.674 21.328C149.146 20.44 148.402 19.744 147.442 19.264C146.482 18.784 145.402 18.52 144.154 18.52C142.906 18.52 141.826 18.784 140.89 19.312C139.954 19.84 139.234 20.56 138.706 21.52ZM147.13 23.392H141.538C141.634 22.672 141.922 22.12 142.426 21.688C142.93 21.256 143.554 21.04 144.298 21.04C145.066 21.04 145.69 21.256 146.194 21.664C146.698 22.072 147.01 22.648 147.13 23.392Z" fill="white"/>
<path d="M12.6252 21.8934L0 29.1912L12.6252 36.489L25.2747 29.1912L12.6252 21.8934Z" fill="white"/>
<path d="M12.6252 7.29785L0 14.5957L12.6252 21.8935L25.2747 14.5957L12.6252 7.29785Z" fill="white"/>
<path d="M37.8998 36.489V21.8934L25.2747 29.1912V43.7869L37.8998 36.489Z" fill="white"/>
<path d="M25.2747 14.5956V0L37.8998 7.29781V21.8934L25.2747 14.5956Z" fill="white"/>
</svg>
