<svg width="177" height="46" viewBox="0 0 177 46" fill="none" xmlns="http://www.w3.org/2000/svg">
<path d="M1.6307 0.161044C1.52865 0.285775 1.51731 0.387827 1.60803 0.523897C1.77811 0.807376 2.17498 0.830055 2.32239 0.557915C2.42445 0.35381 2.54918 0.319792 3.22953 0.319792C4.32942 0.319792 5.07781 0.501219 6.12101 1.01148C7.60644 1.73719 8.93312 3.10923 9.96498 4.99153L10.3845 5.75125L9.61347 6.14812C9.19392 6.36356 8.695 6.64704 8.51357 6.77177L8.18474 6.99856L7.40234 6.28419C6.43851 5.39974 5.14584 4.62867 3.96657 4.22046C3.22953 3.971 2.79864 3.90297 1.66472 3.85761C0.156614 3.80091 -0.160883 3.89163 0.0659005 4.29984C0.20197 4.56064 0.428754 4.57198 0.621519 4.34519C0.791607 4.14109 1.80079 4.11841 2.68525 4.29984C4.03461 4.58332 5.79217 5.62652 7.00546 6.87383L7.56108 7.44078L6.97145 7.98506C5.72414 9.153 4.82835 10.8992 4.36344 13.0877C4.04594 14.5845 3.94389 17.4306 4.13666 19.4036L4.28407 20.8777L5.88289 20.8097C8.38884 20.6963 10.5206 20.0953 12.4369 18.9614C13.6842 18.213 15.249 16.6595 16.0314 15.4009C17.9364 12.2939 17.755 8.3139 15.6346 6.44294C14.7048 5.63786 13.1059 5.19563 11.904 5.41107C11.5411 5.47911 11.201 5.53581 11.1443 5.53581C11.0989 5.53581 10.9515 5.32036 10.8154 5.04822C10.0444 3.55145 8.3775 1.72585 7.08484 0.966124C5.86021 0.263097 5.08915 0.0589918 3.33158 0.0136352C2.01624 -0.0203823 1.76677 0.002296 1.6307 0.161044ZM13.7636 10.1282C14.5914 10.5477 15.147 11.829 14.9089 12.7588C14.5914 14.0629 13.7182 15.038 12.2668 15.7297C11.5071 16.0926 10.2031 16.5348 9.87427 16.5348C9.84025 16.5348 9.80624 15.8998 9.80624 15.1401C9.80624 12.3847 10.5319 10.8085 12.0967 10.1282C12.5843 9.91272 13.3667 9.91272 13.7636 10.1282Z" fill="white"/>
<path d="M36.3511 5.2751C36.2037 5.30912 35.8068 5.60393 35.478 5.93277C34.7976 6.60178 34.877 6.46571 31.1238 14.4938C29.7971 17.3286 28.255 20.617 27.6993 21.8076C27.1437 22.9869 26.6221 24.1435 26.5314 24.3702C26.452 24.5857 26.2593 25.0279 26.1005 25.3341C25.7717 25.9917 25.6243 26.6154 25.7377 26.9556C25.9078 27.4998 26.7695 27.1597 29.9332 25.2887C33.2555 23.327 35.5347 21.4561 37.2469 19.3016C39.8436 16.036 40.6487 12.2373 39.4921 8.74488C39.0952 7.54293 38.1994 6.01214 37.6665 5.60393C37.2809 5.30912 36.7933 5.19573 36.3511 5.2751Z" fill="white"/>
<path d="M22.7782 14.3237C21.4062 14.6185 18.5373 16.1833 16.2015 17.9182C14.0697 19.5057 11.6431 22.0456 10.6566 23.7352L10.3618 24.2341L10.5206 25.266C10.6113 25.8329 10.7133 26.3205 10.7473 26.3545C10.7814 26.3885 11.6091 25.969 12.5956 25.4247C18.0724 22.4198 24.343 19.585 26.3727 19.1995C26.7242 19.1315 26.8036 19.0634 26.8603 18.78C27.0417 17.8955 26.8149 16.2853 26.4067 15.4916C26.1232 14.9587 25.5676 14.5051 24.9553 14.3237C24.275 14.1196 23.708 14.1196 22.7782 14.3237Z" fill="white"/>
<path d="M22.9596 24.7444C19.5239 25.4814 15.6345 27.0576 11.5978 29.3481L10.3732 30.0398V32.1942C10.3732 33.8838 10.4072 34.3487 10.5206 34.3033C14.2285 32.6591 18.8435 31.2077 21.769 30.7655C23.6627 30.4707 23.5266 30.55 23.9461 29.4388C24.3544 28.3616 24.7285 26.6607 24.8419 25.3454L24.9213 24.4723L24.5358 24.4836C24.3203 24.4836 23.6173 24.6083 22.9596 24.7444Z" fill="white"/>
<path d="M16.4623 34.7342C12.8678 35.3125 10.4072 37.0587 8.95579 40.0409C8.41152 41.1748 7.94661 42.8757 7.82188 44.2477C7.71983 45.2683 7.56108 45.2116 9.52275 44.8827C11.8473 44.4972 14.1038 43.7602 15.6346 42.8644C17.857 41.5717 19.5012 39.7121 20.295 37.5803C20.5784 36.8319 20.964 34.8022 20.8392 34.6775C20.7145 34.5414 17.3921 34.5868 16.4623 34.7342Z" fill="white"/>
<path d="M52.8267 27.489H57.0894C57.187 28.3484 57.6411 29.0466 58.4517 29.5837C59.272 30.1111 60.2729 30.3748 61.4546 30.3748C62.6265 30.3748 63.5786 30.1257 64.311 29.6277C65.0532 29.1199 65.4243 28.4753 65.4243 27.6941C65.4243 27.0105 65.1509 26.4587 64.604 26.0388C64.0571 25.6189 63.144 25.2673 61.8647 24.9841L59.1108 24.3835C55.2339 23.5535 53.2954 21.5857 53.2954 18.4802C53.2954 16.5466 54.0474 14.9841 55.5513 13.7927C57.0649 12.6013 59.0083 12.0056 61.3813 12.0056C63.8228 12.0056 65.771 12.5867 67.2261 13.7488C68.6812 14.9011 69.4282 16.4392 69.4673 18.363H65.3218C65.2534 17.4744 64.8579 16.7761 64.1353 16.2683C63.4224 15.7507 62.5093 15.4919 61.396 15.4919C60.3022 15.4919 59.4185 15.7312 58.7446 16.2097C58.0806 16.6882 57.7485 17.3181 57.7485 18.0994C57.7485 18.7439 58.0171 19.2664 58.5542 19.6667C59.1011 20.0671 59.9849 20.4089 61.2056 20.6921L63.769 21.2341C65.8882 21.6833 67.4312 22.3865 68.3979 23.3435C69.3647 24.2908 69.8481 25.5701 69.8481 27.1814C69.8481 29.2322 69.0767 30.863 67.5337 32.074C65.9907 33.2751 63.9058 33.8757 61.2788 33.8757C58.73 33.8757 56.6987 33.3093 55.1851 32.1765C53.6812 31.0339 52.895 29.4714 52.8267 27.489ZM72.3091 33.5095V12.3718H76.5864V33.5095H72.3091ZM92.3628 31.6785C90.9663 33.1238 89.0718 33.8464 86.6792 33.8464C84.2866 33.8464 82.3921 33.1189 80.9956 31.6638C79.5991 30.2087 78.9009 28.2019 78.9009 25.6433C78.9009 23.114 79.604 21.1218 81.0103 19.6667C82.4263 18.2019 84.3159 17.4695 86.6792 17.4695C89.0522 17.4695 90.9419 18.2019 92.3481 19.6667C93.7544 21.1218 94.4575 23.114 94.4575 25.6433C94.4575 28.2117 93.7593 30.2234 92.3628 31.6785ZM86.6792 30.5798C87.7339 30.5798 88.5688 30.1501 89.1841 29.2908C89.7993 28.4314 90.1069 27.2205 90.1069 25.658C90.1069 24.115 89.7993 22.9089 89.1841 22.0398C88.5688 21.1707 87.7339 20.7361 86.6792 20.7361C85.6245 20.7361 84.7847 21.1707 84.1597 22.0398C83.5444 22.9089 83.2368 24.115 83.2368 25.658C83.2368 27.2205 83.5444 28.4314 84.1597 29.2908C84.7749 30.1501 85.6147 30.5798 86.6792 30.5798ZM118.554 17.8064L114.394 33.5095H109.838L106.997 22.406H106.909L104.082 33.5095H99.5845L95.4097 17.8064H99.7163L102.089 29.4519H102.177L104.96 17.8064H109.062L111.86 29.4519H111.948L114.335 17.8064H118.554ZM129.555 33.7585C128.422 33.7585 127.426 33.4998 126.567 32.9822C125.717 32.4646 125.073 31.7419 124.633 30.8142H124.545V33.5095H120.327V12.3718H124.604V20.531H124.692C125.131 19.5935 125.771 18.866 126.611 18.3484C127.451 17.821 128.427 17.5574 129.541 17.5574C131.523 17.5574 133.081 18.2751 134.213 19.7107C135.356 21.1462 135.927 23.1287 135.927 25.658C135.927 28.1775 135.361 30.1599 134.228 31.6052C133.095 33.0408 131.538 33.7585 129.555 33.7585ZM128.076 20.9851C127.041 20.9851 126.201 21.4148 125.556 22.2742C124.912 23.1335 124.589 24.2615 124.589 25.658C124.589 27.074 124.907 28.2068 125.542 29.0564C126.186 29.8962 127.031 30.3162 128.076 30.3162C129.15 30.3162 129.995 29.9011 130.61 29.071C131.235 28.2312 131.547 27.0935 131.547 25.658C131.547 24.2322 131.235 23.0994 130.61 22.2595C129.985 21.4099 129.14 20.9851 128.076 20.9851ZM145.2 20.6335C144.272 20.6335 143.496 20.9509 142.871 21.5857C142.255 22.2205 141.909 23.031 141.831 24.0173H148.496C148.447 23.0115 148.12 22.196 147.514 21.571C146.918 20.946 146.147 20.6335 145.2 20.6335ZM148.554 28.7048H152.48C152.246 30.2478 151.474 31.4929 150.166 32.4402C148.867 33.3777 147.25 33.8464 145.317 33.8464C142.905 33.8464 141.01 33.1238 139.633 31.6785C138.266 30.2332 137.583 28.2507 137.583 25.7312C137.583 23.2214 138.266 21.2195 139.633 19.7253C141 18.2214 142.841 17.4695 145.156 17.4695C147.431 17.4695 149.243 18.1824 150.59 19.6082C151.938 21.0339 152.612 22.9431 152.612 25.3357V26.6394H141.787V26.9031C141.787 28.0261 142.114 28.9392 142.768 29.6423C143.432 30.3357 144.306 30.6824 145.39 30.6824C146.171 30.6824 146.845 30.5066 147.412 30.155C147.978 29.7937 148.359 29.3103 148.554 28.7048ZM161.87 20.6335C160.942 20.6335 160.166 20.9509 159.541 21.5857C158.925 22.2205 158.579 23.031 158.5 24.0173H165.166C165.117 23.0115 164.79 22.196 164.184 21.571C163.588 20.946 162.817 20.6335 161.87 20.6335ZM165.224 28.7048H169.15C168.916 30.2478 168.144 31.4929 166.835 32.4402C165.537 33.3777 163.92 33.8464 161.987 33.8464C159.575 33.8464 157.68 33.1238 156.303 31.6785C154.936 30.2332 154.252 28.2507 154.252 25.7312C154.252 23.2214 154.936 21.2195 156.303 19.7253C157.67 18.2214 159.511 17.4695 161.826 17.4695C164.101 17.4695 165.913 18.1824 167.26 19.6082C168.608 21.0339 169.282 22.9431 169.282 25.3357V26.6394H158.457V26.9031C158.457 28.0261 158.784 28.9392 159.438 29.6423C160.102 30.3357 160.976 30.6824 162.06 30.6824C162.841 30.6824 163.515 30.5066 164.082 30.155C164.648 29.7937 165.029 29.3103 165.224 28.7048Z" fill="white"/>
</svg>
