<svg width="160" height="44" viewBox="0 0 160 44" fill="none" xmlns="http://www.w3.org/2000/svg">
<path d="M71.3125 31H68.1602V19.5859H68.0664L63.4727 30.8359H61.2461L56.6523 19.5859H56.5586V31H53.4062V14.0898H57.5078L62.3125 26.0781H62.4062L67.2109 14.0898H71.3125V31ZM85.4336 18.4375V31H82.1289V28.7383H82.0586C81.4023 30.4023 80.1484 31.2344 78.2969 31.2344C76.9219 31.2344 75.8242 30.8164 75.0039 29.9805C74.1836 29.1367 73.7734 27.9883 73.7734 26.5352V18.4375H77.1953V25.8203C77.1953 26.6562 77.3945 27.293 77.793 27.7305C78.1992 28.168 78.7812 28.3867 79.5391 28.3867C80.2969 28.3867 80.8984 28.1367 81.3438 27.6367C81.7891 27.1367 82.0117 26.4688 82.0117 25.6328V18.4375H85.4336ZM87.4492 22.1289C87.4492 20.9336 87.9297 19.9766 88.8906 19.2578C89.8516 18.5312 91.1367 18.168 92.7461 18.168C94.3164 18.168 95.5781 18.5352 96.5312 19.2695C97.4844 20.0039 97.9727 20.9805 97.9961 22.1992H94.8438C94.8047 21.6914 94.5938 21.293 94.2109 21.0039C93.8359 20.7148 93.332 20.5703 92.6992 20.5703C92.1055 20.5703 91.6289 20.6953 91.2695 20.9453C90.918 21.1875 90.7422 21.5117 90.7422 21.918C90.7422 22.5273 91.2891 22.9609 92.3828 23.2188L94.7852 23.7344C96.043 24.0156 96.9453 24.4258 97.4922 24.9648C98.0469 25.4961 98.3242 26.2305 98.3242 27.168C98.3242 28.4023 97.8086 29.3945 96.7773 30.1445C95.7461 30.8945 94.3984 31.2695 92.7344 31.2695C91.0781 31.2695 89.7539 30.9023 88.7617 30.168C87.7695 29.4336 87.2266 28.4453 87.1328 27.2031H90.4727C90.5586 27.7344 90.8008 28.1445 91.1992 28.4336C91.6055 28.7227 92.1484 28.8672 92.8281 28.8672C93.4766 28.8672 93.9844 28.75 94.3516 28.5156C94.7266 28.2734 94.9141 27.9453 94.9141 27.5312C94.9141 27.2109 94.7969 26.957 94.5625 26.7695C94.3281 26.5742 93.9297 26.4102 93.3672 26.2773L91.0469 25.7617C88.6484 25.2148 87.4492 24.0039 87.4492 22.1289ZM100.094 31V18.4375H103.516V31H100.094ZM103.105 16.5391C102.754 16.8828 102.32 17.0547 101.805 17.0547C101.289 17.0547 100.855 16.8828 100.504 16.5391C100.152 16.1953 99.9766 15.7773 99.9766 15.2852C99.9766 14.7852 100.152 14.3672 100.504 14.0312C100.855 13.6875 101.289 13.5156 101.805 13.5156C102.32 13.5156 102.754 13.6875 103.105 14.0312C103.457 14.3672 103.633 14.7852 103.633 15.2852C103.633 15.7773 103.457 16.1953 103.105 16.5391ZM117.215 23.1133H114.039C113.938 22.4336 113.668 21.8867 113.23 21.4727C112.801 21.0586 112.242 20.8516 111.555 20.8516C110.703 20.8516 110.031 21.1953 109.539 21.8828C109.055 22.5625 108.812 23.5039 108.812 24.707C108.812 25.9336 109.055 26.8867 109.539 27.5664C110.031 28.2461 110.707 28.5859 111.566 28.5859C112.246 28.5859 112.801 28.3945 113.23 28.0117C113.66 27.6211 113.93 27.082 114.039 26.3945H117.227C117.141 27.8789 116.582 29.0625 115.551 29.9453C114.52 30.8281 113.18 31.2695 111.531 31.2695C109.625 31.2695 108.117 30.6875 107.008 29.5234C105.898 28.3516 105.344 26.7461 105.344 24.707C105.344 22.6992 105.898 21.1094 107.008 19.9375C108.125 18.7578 109.625 18.168 111.508 18.168C113.18 18.168 114.527 18.6289 115.551 19.5508C116.582 20.4727 117.137 21.6602 117.215 23.1133ZM126.66 31H119.172V14.0898H126.531C128.117 14.0898 129.375 14.4688 130.305 15.2266C131.234 15.9844 131.699 17.0117 131.699 18.3086C131.699 19.2305 131.395 20.0391 130.785 20.7344C130.184 21.4297 129.43 21.8438 128.523 21.9766V22.0703C129.68 22.1562 130.633 22.582 131.383 23.3477C132.133 24.1133 132.508 25.0508 132.508 26.1602C132.508 27.6523 131.984 28.832 130.938 29.6992C129.891 30.5664 128.465 31 126.66 31ZM122.711 16.7266V21.1211H125.254C126.199 21.1211 126.93 20.9258 127.445 20.5352C127.961 20.1367 128.219 19.5781 128.219 18.8594C128.219 18.1797 127.992 17.6562 127.539 17.2891C127.086 16.9141 126.445 16.7266 125.617 16.7266H122.711ZM122.711 28.3633H125.758C126.781 28.3633 127.559 28.1523 128.09 27.7305C128.629 27.3008 128.898 26.6836 128.898 25.8789C128.898 25.0898 128.621 24.4883 128.066 24.0742C127.52 23.6602 126.723 23.4531 125.676 23.4531H122.711V28.3633ZM144.543 29.5352C143.426 30.6914 141.91 31.2695 139.996 31.2695C138.082 31.2695 136.566 30.6875 135.449 29.5234C134.332 28.3594 133.773 26.7539 133.773 24.707C133.773 22.6836 134.336 21.0898 135.461 19.9258C136.594 18.7539 138.105 18.168 139.996 18.168C141.895 18.168 143.406 18.7539 144.531 19.9258C145.656 21.0898 146.219 22.6836 146.219 24.707C146.219 26.7617 145.66 28.3711 144.543 29.5352ZM139.996 28.6562C140.84 28.6562 141.508 28.3125 142 27.625C142.492 26.9375 142.738 25.9688 142.738 24.7188C142.738 23.4844 142.492 22.5195 142 21.8242C141.508 21.1289 140.84 20.7812 139.996 20.7812C139.152 20.7812 138.48 21.1289 137.98 21.8242C137.488 22.5195 137.242 23.4844 137.242 24.7188C137.242 25.9688 137.488 26.9375 137.98 27.625C138.473 28.3125 139.145 28.6562 139.996 28.6562ZM152.852 26.6406H152.781L150.426 31H146.828L150.766 24.7422L146.852 18.4375H150.707L152.969 22.6797H153.039L155.266 18.4375H158.992L155.066 24.6484L158.957 31H155.242L152.852 26.6406Z" fill="white"/>
<path d="M12.6252 21.8934L0 29.1912L12.6252 36.489L25.2747 29.1912L12.6252 21.8934Z" fill="white"/>
<path d="M12.6252 7.29781L0 14.5956L12.6252 21.8934L25.2747 14.5956L12.6252 7.29781Z" fill="white"/>
<path d="M37.8998 36.489V21.8934L25.2747 29.1912V43.7868L37.8998 36.489Z" fill="white"/>
<path d="M25.2747 14.5956V0L37.8998 7.29781V21.8934L25.2747 14.5956Z" fill="white"/>
</svg>
