<svg width="24" height="24" viewBox="0 0 24 24" fill="none" xmlns="http://www.w3.org/2000/svg">
<path d="M20.9 1.47373C20.2 0.968418 19.3 0.867356 18.5 1.17054L10.3 4.00029C8.9 4.5056 8 5.81941 8 7.33534V10.7715V15.5214C7.4 15.2182 6.7 14.915 6 14.915C3.8 14.915 2 16.7341 2 18.9575C2 21.1809 3.8 23 6 23C8.2 23 10 21.1809 10 18.9575C10 18.8564 10 18.7554 10 18.6543V18.5533V11.4789L20 7.94172V12.9948C19.4 12.6916 18.7 12.3885 18 12.3885C15.8 12.3885 14 14.2076 14 16.431C14 18.6543 15.8 20.4734 18 20.4734C20.2 20.4734 22 18.6543 22 16.431C22 16.3299 22 16.2288 22 16.1278V16.0267V6.52684V3.59604C22 2.78754 21.6 1.97904 20.9 1.47373Z" fill="white"/>
</svg>
