<svg width="16" height="16" viewBox="0 0 16 16" fill="none" xmlns="http://www.w3.org/2000/svg">
<path d="M11.225 3C11.589 2.99969 11.9495 3.07207 12.2852 3.21287C12.6209 3.35368 12.9251 3.56009 13.18 3.82C13.7052 4.35319 13.9996 5.07158 13.9996 5.82C13.9996 6.56842 13.7052 7.28681 13.18 7.82L8.00001 13.065L2.82001 7.82C2.2948 7.28681 2.0004 6.56842 2.0004 5.82C2.0004 5.07158 2.2948 4.35319 2.82001 3.82C3.07506 3.56028 3.3793 3.35398 3.71497 3.21315C4.05063 3.07232 4.411 2.99979 4.77501 2.99979C5.13902 2.99979 5.49939 3.07232 5.83505 3.21315C6.17072 3.35398 6.47496 3.56028 6.73001 3.82L8.00001 5.12L9.26501 3.83C9.51913 3.56699 9.82368 3.35793 10.1605 3.21532C10.4972 3.07271 10.8593 2.99948 11.225 3ZM11.225 2C10.7278 1.99958 10.2356 2.09843 9.77707 2.29075C9.31858 2.48308 8.90311 2.765 8.55501 3.12L8.00001 3.68L7.44501 3.12C7.09648 2.76564 6.68091 2.48421 6.2225 2.2921C5.7641 2.09999 5.27204 2.00105 4.77501 2.00105C4.27798 2.00105 3.78592 2.09999 3.32752 2.2921C2.86911 2.48421 2.45353 2.76564 2.10501 3.12C1.39595 3.84181 0.998657 4.81318 0.998657 5.825C0.998657 6.83682 1.39595 7.80819 2.10501 8.53L8.00001 14.5L13.895 8.53C14.6041 7.80819 15.0014 6.83682 15.0014 5.825C15.0014 4.81318 14.6041 3.84181 13.895 3.12C13.5466 2.76545 13.131 2.48382 12.6726 2.29153C12.2142 2.09924 11.7221 2.00014 11.225 2Z" fill="white"/>
</svg>
