<svg width="10" height="13" viewBox="0 0 10 13" fill="none" xmlns="http://www.w3.org/2000/svg">
<path d="M2.5 0H1.25C0.918479 0 0.600537 0.131696 0.366117 0.366116C0.131696 0.600537 0 0.918479 0 1.25V11.25C0 11.5815 0.131696 11.8995 0.366117 12.1339C0.600537 12.3683 0.918479 12.5 1.25 12.5H2.5C2.83152 12.5 3.14946 12.3683 3.38388 12.1339C3.6183 11.8995 3.75 11.5815 3.75 11.25V1.25C3.75 0.918479 3.6183 0.600537 3.38388 0.366116C3.14946 0.131696 2.83152 0 2.5 0Z" fill="#151515"/>
<path d="M8.75 0H7.5C7.16848 0 6.85054 0.131696 6.61612 0.366116C6.3817 0.600537 6.25 0.918479 6.25 1.25V11.25C6.25 11.5815 6.3817 11.8995 6.61612 12.1339C6.85054 12.3683 7.16848 12.5 7.5 12.5H8.75C9.08152 12.5 9.39946 12.3683 9.63388 12.1339C9.8683 11.8995 10 11.5815 10 11.25V1.25C10 0.918479 9.8683 0.600537 9.63388 0.366116C9.39946 0.131696 9.08152 0 8.75 0Z" fill="#151515"/>
</svg>
