<svg width="14" height="14" viewBox="0 0 14 14" fill="none" xmlns="http://www.w3.org/2000/svg">
<path d="M4.30002 12.8334H3.28001C2.43001 12.8334 1.75 12.1334 1.75 11.2584V2.74169C1.75 1.86669 2.43001 1.16669 3.28001 1.16669H4.30002C5.15003 1.16669 5.83003 1.86669 5.83003 2.74169V11.2C5.8867 12.1334 5.2067 12.8334 4.30002 12.8334Z" fill="black"/>
<path d="M10.7188 12.8334H9.698C8.8473 12.8334 8.16675 12.1334 8.16675 11.2584V2.74169C8.16675 1.86669 8.8473 1.16669 9.698 1.16669H10.7188C11.5695 1.16669 12.2501 1.86669 12.2501 2.74169V11.2C12.2501 12.1334 11.5695 12.8334 10.7188 12.8334Z" fill="black"/>
</svg>
