<svg width="14" height="14" viewBox="0 0 14 14" fill="none" xmlns="http://www.w3.org/2000/svg">
<path fill-rule="evenodd" clip-rule="evenodd" d="M2.91669 3.01087C2.91669 2.24125 3.74965 1.76011 4.41632 2.14463L11.3324 6.13371C11.9995 6.51852 11.9995 7.48138 11.3324 7.86619L4.41632 11.8553C3.74965 12.2398 2.91669 11.7586 2.91669 10.989V3.01087ZM5.58299 4.16437C4.91632 3.77984 4.08335 4.26099 4.08335 5.03061V8.96929C4.08335 9.7389 4.91632 10.2201 5.58299 9.83553L8.99733 7.86619C9.66448 7.48138 9.66448 6.51852 8.99733 6.13371L5.58299 4.16437Z" fill="#151515"/>
<path d="M3.7343 9.71145L3.55895 4.62631C3.53259 3.86174 4.33953 3.35194 5.01868 3.70409L9.75312 6.15898C10.4546 6.52272 10.477 7.51805 9.79253 7.91293L5.23343 10.5432C4.57997 10.9202 3.7603 10.4654 3.7343 9.71145Z" fill="#151515" stroke="#151515"/>
</svg>
