<svg width="16" height="16" viewBox="0 0 16 16" fill="none" xmlns="http://www.w3.org/2000/svg">
<path d="M15 2H14V14H15V2Z" fill="white"/>
<path d="M2.5 14C2.36739 14 2.24021 13.9473 2.14645 13.8536C2.05268 13.7598 2 13.6326 2 13.5V2.5C2.00002 2.41219 2.02317 2.32594 2.06711 2.24992C2.11105 2.1739 2.17423 2.11079 2.2503 2.06694C2.32638 2.02309 2.41266 2.00004 2.50046 2.00012C2.58827 2.00021 2.67451 2.02341 2.7505 2.0674L12.2505 7.5674C12.3263 7.61135 12.3892 7.67444 12.4329 7.75034C12.4766 7.82625 12.4996 7.9123 12.4996 7.9999C12.4996 8.08749 12.4766 8.17355 12.4329 8.24946C12.3892 8.32536 12.3263 8.38845 12.2505 8.4324L2.7505 13.9324C2.67443 13.9766 2.588 14 2.5 14Z" fill="white"/>
</svg>
