<svg width="16" height="16" viewBox="0 0 16 16" fill="none" xmlns="http://www.w3.org/2000/svg">
<path d="M13.5 14C13.412 14 13.3256 13.9768 13.2495 13.9326L3.7495 8.4326C3.67373 8.38865 3.61084 8.32556 3.56712 8.24966C3.5234 8.17375 3.50039 8.0877 3.50039 8.0001C3.50039 7.91251 3.5234 7.82645 3.56712 7.75054C3.61084 7.67464 3.67373 7.61155 3.7495 7.5676L13.2495 2.0676C13.3255 2.02362 13.4117 2.00041 13.4995 2.00032C13.5873 2.00023 13.6735 2.02326 13.7496 2.06709C13.8257 2.11091 13.8889 2.17399 13.9328 2.24999C13.9768 2.32598 13.9999 2.41221 14 2.5V13.5C14 13.6326 13.9473 13.7598 13.8536 13.8536C13.7598 13.9473 13.6326 14 13.5 14Z" fill="white"/>
<path d="M2 2H1V14H2V2Z" fill="white"/>
</svg>
