<svg width="16" height="16" viewBox="0 0 16 16" fill="none" xmlns="http://www.w3.org/2000/svg">
<path d="M13.58 4.03991L12.815 4.68491C13.6009 5.61588 14.0199 6.80177 13.9932 8.01983C13.9665 9.23788 13.496 10.4043 12.67 11.2999L13.405 11.9999C14.3968 10.9252 14.962 9.52514 14.9942 8.06301C15.0264 6.60089 14.5235 5.17733 13.58 4.05991V4.03991Z" fill="white"/>
<path d="M10.79 5.99991C11.2614 6.55892 11.5124 7.27087 11.4959 8.00194C11.4793 8.733 11.1963 9.43284 10.7 9.96991L11.435 10.6499C12.0964 9.9331 12.4732 8.9993 12.4944 8.02417C12.5155 7.04904 12.1797 6.09977 11.55 5.35491L10.79 5.99991Z" fill="white"/>
<path d="M9 14.9999C8.93385 14.9996 8.86841 14.9862 8.80747 14.9605C8.74653 14.9347 8.69131 14.8972 8.645 14.8499L4.835 10.9999H1.5C1.36739 10.9999 1.24021 10.9472 1.14645 10.8535C1.05268 10.7597 1 10.6325 1 10.4999V5.49991C1 5.36731 1.05268 5.24013 1.14645 5.14636C1.24021 5.05259 1.36739 4.99991 1.5 4.99991H4.835L8.645 1.14991C8.73868 1.05679 8.86541 1.00452 8.9975 1.00452C9.12959 1.00452 9.25632 1.05679 9.35 1.14991C9.44421 1.24223 9.49812 1.36803 9.5 1.49991V14.4999C9.5 14.6325 9.44732 14.7597 9.35355 14.8535C9.25979 14.9472 9.13261 14.9999 9 14.9999Z" fill="white"/>
</svg>
