<svg width="25" height="25" viewBox="0 0 25 25" fill="none" xmlns="http://www.w3.org/2000/svg">
<path d="M19.6094 8.32801L18.4219 9.37489C19.1585 10.2483 19.5507 11.3608 19.5248 12.503C19.4989 13.6453 19.0567 14.7388 18.2813 15.578L19.4297 16.6405C20.4632 15.5205 21.0518 14.0614 21.0849 12.5378C21.118 11.0141 20.5933 9.53092 19.6094 8.36707V8.32801Z" fill="white"/>
<path d="M15.625 23.4374C15.5216 23.437 15.4194 23.416 15.3242 23.3758C15.229 23.3356 15.1427 23.2768 15.0703 23.203L9.11719 17.1874H3.90625C3.69905 17.1874 3.50034 17.1051 3.35382 16.9586C3.20731 16.8121 3.125 16.6133 3.125 16.4061V8.59364C3.125 8.38644 3.20731 8.18772 3.35382 8.04121C3.50034 7.8947 3.69905 7.81239 3.90625 7.81239H9.11719L15.0703 1.79676C15.2167 1.65125 15.4147 1.56958 15.6211 1.56958C15.8275 1.56958 16.0255 1.65125 16.1719 1.79676C16.3191 1.941 16.4033 2.13757 16.4063 2.34364V22.6561C16.4063 22.8633 16.3239 23.0621 16.1774 23.2086C16.0309 23.3551 15.8322 23.4374 15.625 23.4374Z" fill="white"/>
</svg>
