<svg width="24" height="24" viewBox="0 0 24 24" fill="none" xmlns="http://www.w3.org/2000/svg">
<path d="M13.7 2.29996C12.7 1.79996 11.6 1.99996 10.7 2.69996C8.6 4.39996 6.3 5.99996 3.8 7.29996C2.1 8.19996 1 9.99996 1 12C1 13.9 2.1 15.7 3.8 16.7C6.1 17.9 8.4 19.5 10.7 21.4C11.2 21.8 11.8 22 12.5 22C12.9 22 13.3 21.9 13.7 21.7C14.7 21.2 15.3 20.3 15.3 19.2V4.79996C15.3 3.69996 14.7 2.69996 13.7 2.29996Z" fill="white"/>
<path d="M17.3 14.8C17.5 15 17.8 15.1 18 15.1C18.2 15.1 18.5 15 18.7 14.8C19.5 14.1 19.9 13 19.9 11.9C19.9 10.8 19.5 9.79995 18.7 8.99995C18.3 8.59995 17.7 8.59995 17.3 8.99995C16.9 9.39995 16.9 9.99995 17.3 10.4C17.7 10.8 17.9 11.3 17.9 11.8C17.9 12.3 17.7 12.8 17.3 13.2C16.9 13.8 16.9 14.4 17.3 14.8Z" fill="white"/>
<path d="M18.5001 5.09996C18.0001 4.89996 17.4001 5.09996 17.2001 5.59996C17.0001 6.09996 17.2001 6.69996 17.7001 6.89996C19.7001 7.79996 21.0001 9.79996 21.0001 11.9C21.0001 14.1 19.7001 16.1 17.6001 17C17.1001 17.2 16.9001 17.8 17.1001 18.3C17.3001 18.7 17.6001 18.9 18.0001 18.9C18.1001 18.9 18.3001 18.9 18.4001 18.8C21.2001 17.7 23.0001 15 23.0001 12C23.0001 8.99996 21.2001 6.29996 18.5001 5.09996Z" fill="white"/>
</svg>
