<svg width="25" height="25" viewBox="0 0 25 25" fill="none" xmlns="http://www.w3.org/2000/svg">
<path d="M24.2188 9.6952L23.1172 8.59364L20.3125 11.3983L17.5078 8.59364L16.4062 9.6952L19.2109 12.4999L16.4062 15.3046L17.5078 16.4061L20.3125 13.6014L23.1172 16.4061L24.2188 15.3046L21.4141 12.4999L24.2188 9.6952Z" fill="white"/>
<path d="M14.0625 23.4374C13.9591 23.437 13.8569 23.416 13.7617 23.3758C13.6665 23.3356 13.5802 23.2768 13.5078 23.203L7.55469 17.1874H2.34375C2.13655 17.1874 1.93784 17.1051 1.79132 16.9586C1.64481 16.8121 1.5625 16.6133 1.5625 16.4061V8.59364C1.5625 8.38644 1.64481 8.18772 1.79132 8.04121C1.93784 7.8947 2.13655 7.81239 2.34375 7.81239H7.55469L13.5078 1.79676C13.6542 1.65125 13.8522 1.56958 14.0586 1.56958C14.265 1.56958 14.463 1.65125 14.6094 1.79676C14.7566 1.941 14.8408 2.13757 14.8438 2.34364V22.6561C14.8438 22.8633 14.7614 23.0621 14.6149 23.2086C14.4684 23.3551 14.2697 23.4374 14.0625 23.4374Z" fill="white"/>
</svg>
