<svg width="6" height="8" viewBox="0 0 6 8" fill="none" xmlns="http://www.w3.org/2000/svg">
<path d="M1.5 0H0.75C0.551088 0 0.360322 0.0790176 0.21967 0.21967C0.0790178 0.360322 0 0.551088 0 0.75V6.75C0 6.94891 0.0790178 7.13968 0.21967 7.28033C0.360322 7.42098 0.551088 7.5 0.75 7.5H1.5C1.69891 7.5 1.88968 7.42098 2.03033 7.28033C2.17098 7.13968 2.25 6.94891 2.25 6.75V0.75C2.25 0.551088 2.17098 0.360322 2.03033 0.21967C1.88968 0.0790176 1.69891 0 1.5 0Z" fill="white"/>
<path d="M5.25 0H4.5C4.30109 0 4.11032 0.0790176 3.96967 0.21967C3.82902 0.360322 3.75 0.551088 3.75 0.75V6.75C3.75 6.94891 3.82902 7.13968 3.96967 7.28033C4.11032 7.42098 4.30109 7.5 4.5 7.5H5.25C5.44891 7.5 5.63968 7.42098 5.78033 7.28033C5.92098 7.13968 6 6.94891 6 6.75V0.75C6 0.551088 5.92098 0.360322 5.78033 0.21967C5.63968 0.0790176 5.44891 0 5.25 0Z" fill="white"/>
</svg>
