<svg width="14" height="14" viewBox="0 0 14 14" fill="none" xmlns="http://www.w3.org/2000/svg">
<path d="M4.30002 12.8333H3.28001C2.43001 12.8333 1.75 12.1333 1.75 11.2583V2.74163C1.75 1.86663 2.43001 1.16663 3.28001 1.16663H4.30002C5.15003 1.16663 5.83003 1.86663 5.83003 2.74163V11.2C5.8867 12.1333 5.2067 12.8333 4.30002 12.8333Z" fill="white"/>
<path d="M10.7188 12.8333H9.698C8.8473 12.8333 8.16675 12.1333 8.16675 11.2583V2.74163C8.16675 1.86663 8.8473 1.16663 9.698 1.16663H10.7188C11.5695 1.16663 12.2501 1.86663 12.2501 2.74163V11.2C12.2501 12.1333 11.5695 12.8333 10.7188 12.8333Z" fill="white"/>
</svg>
