<svg width="15" height="15" viewBox="0 0 15 15" fill="none" xmlns="http://www.w3.org/2000/svg">
<path fill-rule="evenodd" clip-rule="evenodd" d="M3.125 3.1023C3.125 2.33269 3.95797 1.85154 4.62463 2.23606L12.2491 6.63373C12.9162 7.01854 12.9162 7.9814 12.2491 8.36621L4.62463 12.7639C3.95797 13.1484 3.125 12.6673 3.125 11.8976V3.1023ZM5.87463 4.40007C5.20797 4.01554 4.375 4.49669 4.375 5.2663V9.73364C4.375 10.5033 5.20797 10.9844 5.87463 10.5999L9.74725 8.36621C10.4144 7.9814 10.4144 7.01854 9.74725 6.63373L5.87463 4.40007Z" fill="white"/>
<path d="M4.00514 10.524L3.80895 4.83468C3.78259 4.07012 4.58953 3.56031 5.26868 3.91246L10.5656 6.65903C11.2671 7.02276 11.2895 8.01809 10.605 8.41296L5.50427 11.3557C4.8508 11.7327 4.03114 11.278 4.00514 10.524Z" fill="white" stroke="white"/>
</svg>
