<svg width="16" height="16" viewBox="0 0 16 16" fill="none" xmlns="http://www.w3.org/2000/svg">
<path d="M3.5 13.9999C3.36739 13.9999 3.24021 13.9472 3.14645 13.8535C3.05268 13.7597 3 13.6325 3 13.4999V2.49991C2.99999 2.41302 3.02263 2.32763 3.06568 2.25215C3.10873 2.17668 3.17071 2.11372 3.2455 2.0695C3.32029 2.02527 3.40532 2.00129 3.4922 1.99994C3.57908 1.99858 3.66481 2.01989 3.74095 2.06177L13.7409 7.56177C13.8194 7.60491 13.8848 7.66833 13.9304 7.74539C13.976 7.82246 14 7.91036 14 7.99989C14 8.08942 13.976 8.17732 13.9304 8.25439C13.8848 8.33145 13.8194 8.39487 13.7409 8.43801L3.74095 13.938C3.66713 13.9786 3.58425 13.9999 3.5 13.9999Z" fill="white"/>
</svg>
