<svg width="80" height="80" viewBox="0 0 80 80" fill="none" xmlns="http://www.w3.org/2000/svg">
<circle cx="40" cy="40" r="40" fill="#FB4040" fill-opacity="0.1"/>
<path d="M40 26C32.2 26 26 32.2 26 40C26 47.8 32.2 54 40 54C47.8 54 54 47.8 54 40C54 32.2 47.8 26 40 26ZM40 52C33.4 52 28 46.6 28 40C28 33.4 33.4 28 40 28C46.6 28 52 33.4 52 40C52 46.6 46.6 52 40 52Z" fill="#FB4040"/>
<path d="M45.4 47L40 41.6L34.6 47L33 45.4L38.4 40L33 34.6L34.6 33L40 38.4L45.4 33L47 34.6L41.6 40L47 45.4L45.4 47Z" fill="#FB4040"/>
</svg>
