<svg width="200" height="200" viewBox="0 0 200 200" fill="none" xmlns="http://www.w3.org/2000/svg">
<rect width="200" height="200" fill="#2B2B2B"/>
<path d="M120.312 115.625H79.6875C79.2731 115.625 78.8757 115.46 78.5826 115.167C78.2896 114.874 78.125 114.477 78.125 114.062V87.5C78.125 87.0856 78.2896 86.6882 78.5826 86.3951C78.8757 86.1021 79.2731 85.9375 79.6875 85.9375H89.7813L92.4531 81.9531C92.5947 81.7382 92.7871 81.5615 93.0134 81.4389C93.2396 81.3162 93.4926 81.2513 93.75 81.25H106.25C106.507 81.2513 106.76 81.3162 106.987 81.4389C107.213 81.5615 107.405 81.7382 107.547 81.9531L110.219 85.9375H120.312C120.727 85.9375 121.124 86.1021 121.417 86.3951C121.71 86.6882 121.875 87.0856 121.875 87.5V114.062C121.875 114.477 121.71 114.874 121.417 115.167C121.124 115.46 120.727 115.625 120.312 115.625ZM81.25 112.5H118.75V89.0625H109.375C109.118 89.0612 108.865 88.9963 108.638 88.8736C108.412 88.751 108.22 88.5743 108.078 88.3594L105.406 84.375H94.5937L91.9219 88.3594C91.7803 88.5743 91.5879 88.751 91.3616 88.8736C91.1354 88.9963 90.8824 89.0612 90.625 89.0625H81.25V112.5Z" fill="white" fill-opacity="0.1"/>
<path d="M100 109.375C98.1458 109.375 96.3332 108.825 94.7915 107.795C93.2498 106.765 92.0482 105.301 91.3386 103.588C90.6291 101.875 90.4434 99.9896 90.8051 98.171C91.1669 96.3525 92.0598 94.682 93.3709 93.3709C94.682 92.0598 96.3525 91.1669 98.171 90.8051C99.9896 90.4434 101.875 90.6291 103.588 91.3386C105.301 92.0482 106.765 93.2498 107.795 94.7915C108.825 96.3332 109.375 98.1458 109.375 100C109.375 102.486 108.387 104.871 106.629 106.629C104.871 108.387 102.486 109.375 100 109.375ZM100 93.75C98.7639 93.75 97.5555 94.1166 96.5277 94.8033C95.4999 95.4901 94.6988 96.4662 94.2258 97.6082C93.7527 98.7503 93.6289 100.007 93.8701 101.219C94.1112 102.432 94.7065 103.545 95.5806 104.419C96.4547 105.293 97.5683 105.889 98.7807 106.13C99.9931 106.371 101.25 106.247 102.392 105.774C103.534 105.301 104.51 104.5 105.197 103.472C105.883 102.445 106.25 101.236 106.25 100C106.25 98.3424 105.592 96.7527 104.419 95.5806C103.247 94.4085 101.658 93.75 100 93.75Z" fill="white" fill-opacity="0.1"/>
</svg>
